<svg width="123" height="17" viewBox="0 0 123 17" fill="none" xmlns="http://www.w3.org/2000/svg">
<g clip-path="url(#clip0_2642_274)">
<path d="M21.2306 13.7321C21.2306 14.9516 20.4724 16.012 19.4144 16.4362C19.097 16.5599 18.7443 16.6306 18.374 16.6306C18.2154 16.6306 18.039 16.5952 17.8803 16.5776H17.8627C17.2808 16.4892 16.7518 16.3301 16.2757 16.0827C16.3462 15.9767 16.3992 15.8706 16.4344 15.7646C16.5578 15.4288 16.5755 14.8809 16.5049 14.5451C16.4344 14.1209 16.2581 13.7498 16.0289 13.361L13.7542 9.36682L12.5023 7.17533L12.0791 6.43306C12.0791 6.43306 13.4192 5.24893 13.5602 5.14288C13.7189 5.03684 13.8953 4.9308 14.0893 4.86011C14.3537 4.75407 14.6535 4.70105 14.9532 4.70105C15.7644 4.70105 16.4873 5.10754 16.9281 5.72611L17.1574 6.11491L20.5958 11.9471L20.8074 12.3006C21.0543 12.7071 21.1953 13.1666 21.213 13.6438C21.2306 13.6615 21.2306 13.6968 21.2306 13.7321Z" fill="url(#paint0_linear_2642_274)"/>
<path d="M16.9453 5.72582C16.5044 5.10724 15.7815 4.70075 14.9704 4.70075C14.6706 4.70075 14.3709 4.75377 14.1063 4.85981C13.9124 4.93051 13.7361 5.03654 13.5774 5.14259C13.4363 5.24863 12.0962 6.43275 12.0962 6.43275L7.59981 10.3385L0 17.0191L9.27496 1.73163C9.8392 0.759595 10.8266 -0.000366211 11.9728 -0.000366211C12.9073 -0.000366211 13.7361 0.459141 14.2651 1.14841L14.5825 1.6786L15.5875 3.37525L16.9453 5.72582Z" fill="url(#paint1_linear_2642_274)"/>
<path d="M19.4313 16.4364C18.6025 16.8252 15.411 17.0196 14.3177 16.9843C13.8416 16.9666 13.4008 16.9313 12.9777 16.8429C9.82131 16.2773 7.84642 14.0682 7.61719 10.3391H12.7484C12.8895 10.9753 13.0481 11.5762 13.2245 12.1241C13.824 13.8738 14.7409 15.1462 15.94 15.8885C16.0458 15.9592 16.1692 16.0122 16.275 16.0829C16.7511 16.3303 17.2801 16.4894 17.8619 16.5778H17.8796C18.0383 16.6131 18.2146 16.6308 18.3733 16.6308C18.7436 16.6308 19.0963 16.5601 19.4313 16.4364Z" fill="url(#paint2_linear_2642_274)"/>
<path fill-rule="evenodd" clip-rule="evenodd" d="M33.3791 12.8302L34.4017 15.658H36.7469L31.9684 2.47363H29.6585L24.8623 15.658H27.2075L28.2302 12.8302H33.3791ZM30.8046 5.6195L32.709 10.9215H28.9179L30.8046 5.6195Z" fill="#082247"/>
<path fill-rule="evenodd" clip-rule="evenodd" d="M40.2725 15.6578V1.60742H38.0508V15.6578H40.2725Z" fill="#082247"/>
<path fill-rule="evenodd" clip-rule="evenodd" d="M43.6764 14.9343C44.2054 15.4291 44.9812 15.6412 45.9334 15.6412H47.7143V13.6795H46.2155C45.7218 13.6795 45.4573 13.5911 45.3339 13.4674C45.2105 13.3437 45.1046 13.0786 45.1046 12.6367V7.03427H47.7143V5.10789H45.1046V2.59827H42.8829V5.10789H41.5957V7.03427H42.8829V12.6367C42.9005 13.6441 43.1474 14.4394 43.6764 14.9343Z" fill="#082247"/>
<path fill-rule="evenodd" clip-rule="evenodd" d="M51.3829 5.10791V15.6589H49.1611V5.10791H51.3829Z" fill="#082247"/>
<path fill-rule="evenodd" clip-rule="evenodd" d="M49.302 3.62285C49.5666 3.88795 49.9192 4.02934 50.3071 4.02934C50.6774 4.02934 51.0124 3.88795 51.2769 3.62285C51.5414 3.35774 51.6825 3.00428 51.6825 2.63314C51.6825 2.24433 51.5414 1.90853 51.2769 1.64343C51.0124 1.37833 50.695 1.23694 50.3071 1.23694C49.9192 1.23694 49.5842 1.37833 49.302 1.64343C49.0375 1.90853 48.8965 2.262 48.8965 2.65081C48.8965 3.02195 49.0375 3.35774 49.302 3.62285Z" fill="#082247"/>
<path fill-rule="evenodd" clip-rule="evenodd" d="M68.0445 15.6578H70.249V9.48979C70.249 8.53544 70.0726 7.70478 69.6846 6.99787C69.3145 6.30859 68.7853 5.79608 68.133 5.44261C67.4807 5.08915 66.7399 4.91241 65.9285 4.91241C65.0998 4.91241 64.3243 5.12449 63.6367 5.53098C63.1076 5.8491 62.6843 6.27329 62.3847 6.78579C62.0672 6.25561 61.6266 5.83142 61.0974 5.5133C60.4098 5.10682 59.6162 4.91241 58.7345 4.91241C58.0292 4.91241 57.3768 5.0538 56.7773 5.35424C56.4423 5.53098 56.1425 5.74305 55.8779 6.00817V5.08915H53.6562V15.6402H55.8603V9.86098C55.8603 8.8536 56.1072 8.14663 56.548 7.66948C56.9889 7.1746 57.606 6.92716 58.3995 6.92716C59.1753 6.92716 59.7572 7.1746 60.1802 7.63413C60.6036 8.09359 60.8505 8.7652 60.8505 9.71955V15.6578H63.0544V9.87866C63.0544 8.87127 63.3013 8.16431 63.7426 7.6871C64.1832 7.19228 64.8003 6.94484 65.5937 6.94484C66.3698 6.94484 66.9515 7.19228 67.3748 7.65181C67.7976 8.11127 68.0445 8.78288 68.0445 9.73723V15.6578Z" fill="#082247"/>
<path fill-rule="evenodd" clip-rule="evenodd" d="M74.2356 5.61935C73.4774 6.07888 72.8778 6.71508 72.4371 7.52806C71.9958 8.34103 71.7842 9.2777 71.7842 10.3381C71.7842 11.3809 71.9958 12.3352 72.4371 13.1659C72.8778 13.9965 73.4774 14.6505 74.2356 15.1099C74.9937 15.5695 75.8577 15.7992 76.7922 15.7992C77.6915 15.7992 78.5028 15.6048 79.1904 15.1983C79.5958 14.9509 79.9486 14.6681 80.2481 14.35V15.6225H82.4879V5.07147H80.2481V6.30859C79.9659 6.00817 79.6311 5.74306 79.2257 5.5133C78.5381 5.10682 77.7268 4.91241 76.8096 4.91241C75.8577 4.93009 75.0111 5.15984 74.2356 5.61935ZM77.1271 6.94484C77.6915 6.94484 78.2206 7.08621 78.6786 7.36901C79.1552 7.63413 79.5253 8.02294 79.8075 8.53544C80.0897 9.048 80.2308 9.6489 80.2308 10.3735C80.2308 11.0804 80.0897 11.699 79.8075 12.2292C79.5253 12.7417 79.1552 13.1305 78.6786 13.4133C78.2206 13.6784 77.6915 13.8198 77.1271 13.8198C76.5632 13.8198 76.0341 13.6784 75.5755 13.4133C75.1169 13.1305 74.7468 12.7417 74.4646 12.2292C74.1824 11.699 74.0413 11.0804 74.0413 10.3558C74.0413 9.6489 74.1824 9.03032 74.4646 8.51776C74.7468 8.00526 75.1169 7.61645 75.5755 7.35133C76.0341 7.06859 76.5453 6.94484 77.1271 6.94484Z" fill="#082247"/>
<path fill-rule="evenodd" clip-rule="evenodd" d="M89.8752 15.6571V13.6954H88.3769C87.883 13.6954 87.6187 13.6071 87.4949 13.4833C87.3718 13.3596 87.266 13.0945 87.266 12.6527V7.0502H89.8752V5.12381H87.266V2.6142H85.0441V5.12381H83.7568V7.0502H85.0441V12.6527C85.0441 13.66 85.2911 14.4553 85.8196 14.9502C86.3488 15.445 87.1248 15.6571 88.0767 15.6571H89.8752Z" fill="#082247"/>
<path fill-rule="evenodd" clip-rule="evenodd" d="M109.905 12.8302L108.883 15.658H106.538L111.334 2.47363H113.644L118.423 15.658H116.077L115.055 12.8302H109.905ZM112.48 5.6195L110.576 10.9215H114.367L112.48 5.6195Z" fill="#082247"/>
<path fill-rule="evenodd" clip-rule="evenodd" d="M121.949 2.38629V15.659H119.728V2.38629H121.949Z" fill="#082247"/>
<path fill-rule="evenodd" clip-rule="evenodd" d="M92.9961 11.2758H100.914L100.931 11.0283C100.966 10.6749 100.984 10.3214 100.984 10.0033C100.984 9.04891 100.772 8.18289 100.349 7.42295C99.9438 6.64533 99.3441 6.04444 98.5686 5.60258C97.7925 5.16075 96.9106 4.94867 95.9235 4.94867C94.9184 4.94867 94.0012 5.17843 93.2078 5.62026C92.4144 6.06211 91.7973 6.69831 91.374 7.51129C90.9333 8.34194 90.7217 9.29629 90.7217 10.3567C90.7217 11.4348 90.9507 12.3892 91.3919 13.2198C91.8326 14.0328 92.4676 14.6867 93.2431 15.1285C94.0365 15.588 94.9357 15.8001 95.9235 15.8001C97.1575 15.8001 98.2158 15.482 99.0798 14.8458C99.9258 14.2095 100.508 13.3612 100.79 12.3361L100.896 11.9827H98.5333L98.4628 12.1771C98.2864 12.672 97.9862 13.0784 97.5456 13.3965C97.1223 13.6793 96.5937 13.8384 95.9235 13.8384C95.1121 13.8384 94.4425 13.5909 93.878 13.0961C93.3842 12.6543 93.0846 12.0534 92.9961 11.2758ZM98.339 8.16522C98.5507 8.50099 98.6744 8.8898 98.7097 9.36701H93.0141C93.1372 8.62474 93.4194 8.0592 93.878 7.63504C94.4245 7.15783 95.0595 6.91039 95.835 6.91039C96.3821 6.91039 96.858 7.01646 97.2986 7.24623C97.7572 7.44063 98.0921 7.75873 98.339 8.16522Z" fill="#082247"/>
</g>
<defs>
<linearGradient id="paint0_linear_2642_274" x1="13.3082" y1="5.42149" x2="19.5522" y2="15.7347" gradientUnits="userSpaceOnUse">
<stop stop-color="#247EFE"/>
<stop offset="1" stop-color="#30FAFE"/>
</linearGradient>
<linearGradient id="paint1_linear_2642_274" x1="14.8605" y1="1.93496" x2="-1.55162" y2="17.7597" gradientUnits="userSpaceOnUse">
<stop stop-color="#144583"/>
<stop offset="0.0752364" stop-color="#18529F"/>
<stop offset="0.7743" stop-color="#247EFE"/>
</linearGradient>
<linearGradient id="paint2_linear_2642_274" x1="7.85761" y1="10.7461" x2="17.9883" y2="17.1701" gradientUnits="userSpaceOnUse">
<stop stop-color="#144583"/>
<stop offset="1" stop-color="#1B5EB8"/>
</linearGradient>
<clipPath id="clip0_2642_274">
<rect width="122.113" height="17" fill="white"/>
</clipPath>
</defs>
</svg>
